<!--?xml version="1.0" encoding="UTF-8" standalone="no"?-->

<!-- Generated by graphviz version 2.40.1 (20161225.0304)
 -->
<!-- Title: G Pages: 1 -->
<svg width="422pt" height="404pt" viewBox="0.00 0.00 422.00 404.00" xmlns="http://www.w3.org/2000/svg" xmlns:xlink="http://www.w3.org/1999/xlink">
<g id="graph0" class="graph" transform="scale(1 1) rotate(0) translate(4 400)">
<title>G</title>
<polygon fill="#ffffff" stroke="transparent" points="-4,4 -4,-400 418,-400 418,4 -4,4"></polygon>
<!-- 0 -->
<g id="node1" class="node">
<title>0</title>
<polygon fill="none" stroke="#ffb03b" points="198,-396 144,-396 144,-360 198,-360 198,-396"></polygon>
<text text-anchor="middle" x="171" y="-373.8" font-family="Courier,monospace" font-size="14.00" fill="#000000">0</text>
</g>
<!-- 6 -->
<g id="node10" class="node">
<title>6</title>
<polygon fill="none" stroke="#5a5241" points="202.2315,-288 233.7685,-288 245,-324 191,-324 202.2315,-288"></polygon>
<text text-anchor="middle" x="218" y="-301.8" font-family="Courier,monospace" font-size="14.00" fill="#000000">6</text>
</g>
<!-- 0&#45;&gt;6 -->
<g id="edge4" class="edge">
<title>0-&gt;6</title>
<path fill="none" stroke="#5a5241" d="M182.8601,-359.8314C188.4944,-351.2001 195.3229,-340.7394 201.4565,-331.3432"></path>
<ellipse fill="none" stroke="#5a5241" cx="203.7937" cy="-327.7628" rx="4" ry="4"></ellipse>
</g>
<!-- 11 -->
<g id="node15" class="node">
<title>11</title>
<polygon fill="none" stroke="#5a5241" points="144.3189,-216 181.6811,-216 194.9873,-252 131.0127,-252 144.3189,-216"></polygon>
<text text-anchor="middle" x="163" y="-229.8" font-family="Courier,monospace" font-size="14.00" fill="#000000">11</text>
</g>
<!-- 0&#45;&gt;11 -->
<g id="edge15" class="edge">
<title>0-&gt;11</title>
<path fill="none" stroke="#5a5241" d="M169.9868,-359.7623C168.5862,-334.5518 166.0506,-288.9103 164.4497,-260.0952"></path>
<ellipse fill="none" stroke="#5a5241" cx="164.2269" cy="-256.0835" rx="4" ry="4"></ellipse>
</g>
<!-- 1 -->
<g id="node2" class="node">
<title>1</title>
<polygon fill="none" stroke="#8a0918" points="270,-396 216,-396 216,-360 270,-360 270,-396"></polygon>
<text text-anchor="middle" x="243" y="-373.8" font-family="Courier,monospace" font-size="14.00" fill="#000000">1</text>
</g>
<!-- 1&#45;&gt;6 -->
<g id="edge5" class="edge">
<title>1-&gt;6</title>
<path fill="none" stroke="#5a5241" d="M236.6914,-359.8314C233.7826,-351.454 230.2754,-341.3531 227.0885,-332.1749"></path>
<ellipse fill="none" stroke="#5a5241" cx="225.7056" cy="-328.192" rx="4" ry="4"></ellipse>
</g>
<!-- 8 -->
<g id="node12" class="node">
<title>8</title>
<polygon fill="none" stroke="#5a5241" points="236.2315,-216 267.7685,-216 279,-252 225,-252 236.2315,-216"></polygon>
<text text-anchor="middle" x="252" y="-229.8" font-family="Courier,monospace" font-size="14.00" fill="#000000">8</text>
</g>
<!-- 1&#45;&gt;8 -->
<g id="edge9" class="edge">
<title>1-&gt;8</title>
<path fill="none" stroke="#5a5241" d="M247.6934,-359.6463C250.1071,-349.2631 252.7908,-335.9943 254,-324 256.4926,-299.2754 255.1174,-270.5453 253.7174,-252.3229"></path>
</g>
<!-- 2 -->
<g id="node3" class="node">
<title>2</title>
<polygon fill="none" stroke="#8a0918" points="54,-396 0,-396 0,-360 54,-360 54,-396"></polygon>
<text text-anchor="middle" x="27" y="-373.8" font-family="Courier,monospace" font-size="14.00" fill="#000000">2</text>
</g>
<!-- 7 -->
<g id="node11" class="node">
<title>7</title>
<polygon fill="none" stroke="#5a5241" points="83.2315,-288 114.7685,-288 126,-324 72,-324 83.2315,-288"></polygon>
<text text-anchor="middle" x="99" y="-301.8" font-family="Courier,monospace" font-size="14.00" fill="#000000">7</text>
</g>
<!-- 2&#45;&gt;7 -->
<g id="edge6" class="edge">
<title>2-&gt;7</title>
<path fill="none" stroke="#5a5241" d="M45.1686,-359.8314C56,-349 69.7124,-335.2876 80.5867,-324.4133"></path>
</g>
<!-- 3 -->
<g id="node4" class="node">
<title>3</title>
<polygon fill="none" stroke="#8a0918" points="126,-396 72,-396 72,-360 126,-360 126,-396"></polygon>
<text text-anchor="middle" x="99" y="-373.8" font-family="Courier,monospace" font-size="14.00" fill="#000000">3</text>
</g>
<!-- 3&#45;&gt;7 -->
<g id="edge7" class="edge">
<title>3-&gt;7</title>
<path fill="none" stroke="#5a5241" d="M99,-359.8314C99,-349 99,-335.2876 99,-324.4133"></path>
</g>
<!-- 4 -->
<g id="node5" class="node">
<title>4</title>
<polygon fill="none" stroke="#8a0918" points="342,-396 288,-396 288,-360 342,-360 342,-396"></polygon>
<text text-anchor="middle" x="315" y="-373.8" font-family="Courier,monospace" font-size="14.00" fill="#000000">4</text>
</g>
<!-- 10 -->
<g id="node14" class="node">
<title>10</title>
<polygon fill="none" stroke="#5a5241" points="296.3189,-144 333.6811,-144 346.9873,-180 283.0127,-180 296.3189,-144"></polygon>
<text text-anchor="middle" x="315" y="-157.8" font-family="Courier,monospace" font-size="14.00" fill="#000000">10</text>
</g>
<!-- 4&#45;&gt;10 -->
<g id="edge12" class="edge">
<title>4-&gt;10</title>
<path fill="none" stroke="#5a5241" d="M315,-359.9555C315,-319.2967 315,-220.8988 315,-180.1451"></path>
</g>
<!-- 5 -->
<g id="node6" class="node">
<title>5</title>
<polygon fill="none" stroke="#8a0918" points="414,-396 360,-396 360,-360 414,-360 414,-396"></polygon>
<text text-anchor="middle" x="387" y="-373.8" font-family="Courier,monospace" font-size="14.00" fill="#000000">5</text>
</g>
<!-- 12 -->
<g id="node16" class="node">
<title>12</title>
<polygon fill="none" stroke="#5a5241" points="332.3189,-72 369.6811,-72 382.9873,-108 319.0127,-108 332.3189,-72"></polygon>
<text text-anchor="middle" x="351" y="-85.8" font-family="Courier,monospace" font-size="14.00" fill="#000000">12</text>
</g>
<!-- 5&#45;&gt;12 -->
<g id="edge16" class="edge">
<title>5-&gt;12</title>
<path fill="none" stroke="#5a5241" d="M384.748,-359.9843C378.2829,-308.2634 359.7152,-159.7213 353.2511,-108.0089"></path>
</g>
<!-- 13 -->
<g id="node7" class="node">
<title>13</title>
<polygon fill="none" stroke="#accfcc" points="122,-36 68,-36 68,0 122,0 122,-36"></polygon>
<text text-anchor="middle" x="95" y="-13.8" font-family="Courier,monospace" font-size="14.00" fill="#000000">13</text>
</g>
<!-- 14 -->
<g id="node8" class="node">
<title>14</title>
<polygon fill="none" stroke="#accfcc" points="194,-36 140,-36 140,0 194,0 194,-36"></polygon>
<text text-anchor="middle" x="167" y="-13.8" font-family="Courier,monospace" font-size="14.00" fill="#000000">14</text>
</g>
<!-- 15 -->
<g id="node9" class="node">
<title>15</title>
<polygon fill="none" stroke="#accfcc" points="378,-36 324,-36 324,0 378,0 378,-36"></polygon>
<text text-anchor="middle" x="351" y="-13.8" font-family="Courier,monospace" font-size="14.00" fill="#000000">15</text>
</g>
<!-- 6&#45;&gt;8 -->
<g id="edge8" class="edge">
<title>6-&gt;8</title>
<path fill="none" stroke="#5a5241" d="M226.5796,-287.8314C231.6944,-277 238.1698,-263.2876 243.3048,-252.4133"></path>
</g>
<!-- 9 -->
<g id="node13" class="node">
<title>9</title>
<polygon fill="none" stroke="#5a5241" points="83.2315,-144 114.7685,-144 126,-180 72,-180 83.2315,-144"></polygon>
<text text-anchor="middle" x="99" y="-157.8" font-family="Courier,monospace" font-size="14.00" fill="#000000">9</text>
</g>
<!-- 7&#45;&gt;9 -->
<g id="edge11" class="edge">
<title>7-&gt;9</title>
<path fill="none" stroke="#5a5241" d="M99,-287.7623C99,-260.0633 99,-207.7005 99,-180.0896"></path>
</g>
<!-- 7&#45;&gt;11 -->
<g id="edge14" class="edge">
<title>7-&gt;11</title>
<path fill="none" stroke="#5a5241" d="M115.1499,-287.8314C123.0478,-278.9463 132.6689,-268.1225 141.2072,-258.5169"></path>
<ellipse fill="none" stroke="#5a5241" cx="143.9752" cy="-255.4029" rx="4" ry="4"></ellipse>
</g>
<!-- 8&#45;&gt;9 -->
<g id="edge10" class="edge">
<title>8-&gt;9</title>
<path fill="none" stroke="#5a5241" d="M233.2392,-225.1714C205.8693,-212.2914 154.9248,-188.3176 124.2756,-173.8944"></path>
</g>
<!-- 8&#45;&gt;10 -->
<g id="edge13" class="edge">
<title>8-&gt;10</title>
<path fill="none" stroke="#5a5241" d="M267.8976,-215.8314C275.672,-206.9463 285.1428,-196.1225 293.5477,-186.5169"></path>
<ellipse fill="none" stroke="#5a5241" cx="296.2544" cy="-183.4236" rx="4" ry="4"></ellipse>
</g>
<!-- 9&#45;&gt;13 -->
<g id="edge1" class="edge">
<title>9-&gt;13</title>
<path fill="none" stroke="#5a5241" d="M98.4934,-143.7623C97.724,-116.0633 96.2695,-63.7005 95.5025,-36.0896"></path>
</g>
<!-- 10&#45;&gt;12 -->
<g id="edge17" class="edge">
<title>10-&gt;12</title>
<path fill="none" stroke="#5a5241" d="M324.0843,-143.8314C329.5,-133 336.3562,-119.2876 341.7934,-108.4133"></path>
</g>
<!-- 11&#45;&gt;14 -->
<g id="edge2" class="edge">
<title>11-&gt;14</title>
<path fill="none" stroke="#5a5241" d="M163.3342,-215.9555C164.0415,-177.7585 165.6925,-88.6025 166.5156,-44.1559"></path>
<ellipse fill="none" stroke="#5a5241" cx="166.5899" cy="-40.1444" rx="4" ry="4"></ellipse>
</g>
<!-- 12&#45;&gt;15 -->
<g id="edge3" class="edge">
<title>12-&gt;15</title>
<path fill="none" stroke="#5a5241" d="M351,-71.8314C351,-61 351,-47.2876 351,-36.4133"></path>
</g>
</g>
</svg>
